{"title":"Woh Saat Din (1983) Hindi Movie Anil Kapoor GOPI SAHI PDR ET","uid":8909894,"size":334501733,"categoryP":"video","categoryS":"movies","magnet":"?xt=urn:btih:6d9f96c99f9daa61b81efe191b29835183feb819&amp;dn=Woh+Saat+Din+%281983%29+Hindi+Movie+Anil+Kapoor+GOPI+SAHI+PDR+ET&amp;tr=udp%3A%2F%2Ftracker.openbittorrent.com%3A80&amp;tr=udp%3A%2F%2Fopen.demonii.com%3A1337&amp;tr=udp%3A%2F%2Ftracker.coppersurfer.tk%3A6969&amp;tr=udp%3A%2F%2Fexodus.desync.com%3A6969","seeders":1,"leechers":0,"uploader":"jatt13","files":10,"time":1378994533,"description":"[img]http://imageshack.us/a/img202/9291/oz8c.jpg[/img]\n\n[img]http://imageshack.us/a/img843/4861/o2ko.jpg[/img]\n\n[color=black][size=3]Video\nID                             : 1\nFormat                         : Sorenson Spark\nCodec ID                       : V_MS/VFW/FOURCC / FLV1\nDuration                       : 2h 19mn\nBit rate                       : 248 Kbps\nWidth                          : 320 pixels\nHeight                         : 240 pixels\nDisplay aspect ratio           : 4:3\nFrame rate mode                : Constant\nFrame rate                     : 24.000 fps\nBits/(Pixel*Frame)             : 0.135\nStream size                    : 248 MiB (78%)\nTitle                          : Woh Saat Din (1983) Hindi Movie Anil Kapoor GOPI SAHI PDR ET\nLanguage                       : Hindi\nDefault                        : Yes\nForced                         : No\n\nAudio\nID                             : 2\nFormat                         : MPEG Audio\nFormat version                 : Version 2\nFormat profile                 : Layer 3\nMode                           : Joint stereo\nMode extension                 : MS Stereo\nCodec ID                       : A_MPEG/L3\nCodec ID/Hint                  : MP3\nDuration                       : 2h 19mn\nBit rate mode                  : Constant\nBit rate                       : 64.0 Kbps\nChannel(s)                     : 2 channels\nSampling rate                  : 22.05 KHz\nCompression mode               : Lossy\nStream size                    : 64.0 MiB (20%)\nTitle                          : Woh Saat Din (1983) Hindi Movie Anil Kapoor GOPI SAHI PDR ET\nWriting library                : LAME3.98.2\nLanguage                       : Hindi\nDefault                        : Yes\nForced                         : No[/size][/color]\n\n[img]http://imageshack.us/a/img818/3288/42f9.jpg[/img]\n[img]http://imageshack.us/a/img545/7809/qdws.png[/img]\n[img]http://imageshack.us/a/img571/6483/yzp6.png[/img]\n[img]http://imageshack.us/a/img266/956/h3l1.png[/img]\n[img]http://imageshack.us/a/img404/9666/ppll.png[/img]\n[img]http://imageshack.us/a/img20/4056/8u8w.png[/img]","torrent":{"xt":"urn:btih:6d9f96c99f9daa61b81efe191b29835183feb819","amp;dn":"Woh+Saat+Din+%281983%29+Hindi+Movie+Anil+Kapoor+GOPI+SAHI+PDR+ET","amp;tr":["udp%3A%2F%2Ftracker.openbittorrent.com%3A80","udp%3A%2F%2Fopen.demonii.com%3A1337","udp%3A%2F%2Ftracker.coppersurfer.tk%3A6969","udp%3A%2F%2Fexodus.desync.com%3A6969"],"infoHash":"6d9f96c99f9daa61b81efe191b29835183feb819","infoHashBuffer":{"type":"Buffer","data":[109,159,150,201,159,157,170,97,184,30,254,25,27,41,131,81,131,254,184,25]},"announce":[],"urlList":[]}}